<svg xmlns="http://www.w3.org/2000/svg" viewBox="0 0 512 512">

  <!-- Spring (top-left) -->
  <rect x="0" y="0" width="256" height="256" fill="#7CB342"/>
  <circle cx="128" cy="150" r="15" fill="#FFB6C1"/>
  <circle cx="104" cy="130" r="12" fill="#FFB6C1"/>
  <circle cx="154" cy="135" r="14" fill="#FFC0CB"/>
  <circle cx="114" cy="165" r="10" fill="#FFB6C1"/>

  <!-- Summer (top-right) -->
  <rect x="256" y="0" width="256" height="256" fill="#F9A825"/>
  <circle cx="384" cy="128" r="50" fill="#FDD835"/>
  <path d="M384 54 L384 74 M384 182 L384 202 M336 128 L356 128 M412 128 L432 128"
        stroke="#FDD835" stroke-width="6" stroke-linecap="round"/>
  <path d="M351 89 L361 99 M406 89 L416 99 M351 167 L361 157 M406 167 L416 157"
        stroke="#FDD835" stroke-width="5" stroke-linecap="round"/>

  <!-- Autumn (bottom-left) -->
  <rect x="0" y="256" width="256" height="256" fill="#E65100"/>
  <path d="M104 350 Q114 360 124 350 Q134 340 144 350 L139 365 Q129 360 124 365 Q119 360 109 365 Z"
        fill="#FF7043"/>
  <path d="M134 380 Q144 390 154 380 Q164 370 174 380 L169 395 Q159 390 154 395 Q149 390 139 395 Z"
        fill="#FF8A65"/>
  <path d="M94 400 Q104 410 114 400 Q124 390 134 400 L129 415 Q119 410 114 415 Q109 410 99 415 Z"
        fill="#FFAB91"/>

  <!-- Winter (bottom-right) -->
  <rect x="256" y="256" width="256" height="256" fill="#4A90A4"/>
  <circle cx="384" cy="384" r="40" fill="white" opacity="0.8"/>
  <circle cx="346" cy="346" r="20" fill="white" opacity="0.6"/>
  <circle cx="426" cy="366" r="25" fill="white" opacity="0.6"/>
  <circle cx="356" cy="426" r="15" fill="white" opacity="0.5"/>

  <!-- Center Circle with Book Icon -->
  <circle cx="256" cy="256" r="80" fill="white" opacity="0.95"/>
  <path d="M236 236 L236 276 L256 270 L276 276 L276 236 Z"
        fill="#2c3e50" stroke="#2c3e50" stroke-width="2"/>
  <line x1="236" y1="246" x2="276" y2="246" stroke="#8194a8" stroke-width="1"/>
  <line x1="236" y1="256" x2="276" y2="256" stroke="#8194a8" stroke-width="1"/>
  <line x1="236" y1="266" x2="270" y2="266" stroke="#8194a8" stroke-width="1"/>

</svg>


