<svg xmlns="http://www.w3.org/2000/svg" viewBox="0 0 512 512" role="img" aria-label="Four seasonal panels with watercolor texture and a center book icon">
  <defs>
    <!-- Soft watercolor/paper texture -->
    <filter id="paper" x="-20%" y="-20%" width="140%" height="140%">
      <feTurbulence type="fractalNoise" baseFrequency="0.9" numOctaves="3" seed="7" result="noise"/>
      <feColorMatrix in="noise" type="matrix"
        values="1 0 0 0 0
                0 1 0 0 0
                0 0 1 0 0
                0 0 0 .18 0" result="grain"/>
      <feBlend in="SourceGraphic" in2="grain" mode="multiply"/>
    </filter>

    <!-- Gentle vignette for depth -->
    <radialGradient id="vignette" cx="50%" cy="50%" r="75%">
      <stop offset="0%" stop-color="#000" stop-opacity="0"/>
      <stop offset="100%" stop-color="#000" stop-opacity=".12"/>
    </radialGradient>

    <!-- Subtle panel wash -->
    <filter id="wash" x="-10%" y="-10%" width="120%" height="120%">
      <feTurbulence type="fractalNoise" baseFrequency="0.015" numOctaves="2" seed="3" result="t"/>
      <feDisplacementMap in="SourceGraphic" in2="t" scale="6" xChannelSelector="R" yChannelSelector="G"/>
    </filter>

    <!-- Soft shadow -->
    <filter id="softShadow" x="-30%" y="-30%" width="160%" height="160%">
      <feDropShadow dx="0" dy="2" stdDeviation="2" flood-color="#000" flood-opacity=".18"/>
    </filter>

    <!-- Gradients -->
    <linearGradient id="springBg" x1="0" y1="0" x2="0" y2="1">
      <stop offset="0%" stop-color="#8BC34A"/>
      <stop offset="100%" stop-color="#6FAE39"/>
    </linearGradient>

    <linearGradient id="summerBg" x1="0" y1="0" x2="0" y2="1">
      <stop offset="0%" stop-color="#FBC02D"/>
      <stop offset="100%" stop-color="#F9A825"/>
    </linearGradient>

    <linearGradient id="autumnBg" x1="0" y1="0" x2="0" y2="1">
      <stop offset="0%" stop-color="#F57C00"/>
      <stop offset="100%" stop-color="#E65100"/>
    </linearGradient>

    <linearGradient id="winterBg" x1="0" y1="0" x2="0" y2="1">
      <stop offset="0%" stop-color="#5FA6B8"/>
      <stop offset="100%" stop-color="#4A90A4"/>
    </linearGradient>

    <!-- Sun gradients -->
    <radialGradient id="sunCore" cx="50%" cy="50%" r="60%">
      <stop offset="0%" stop-color="#FFE082"/>
      <stop offset="60%" stop-color="#FDD835"/>
      <stop offset="100%" stop-color="#F9A825"/>
    </radialGradient>

    <!-- Center circle cream -->
    <linearGradient id="band" x1="0" y1="0" x2="0" y2="1">
      <stop offset="0%" stop-color="#FFF3D6"/>
      <stop offset="100%" stop-color="#F8E7BE"/>
    </linearGradient>

    <!-- Tree trunk gradient -->
    <linearGradient id="trunk" x1="0" y1="0" x2="0" y2="1">
      <stop offset="0%" stop-color="#5D4037"/>
      <stop offset="100%" stop-color="#3E2723"/>
    </linearGradient>

    <!-- Soft sky haze -->
    <radialGradient id="skyHaze" cx="50%" cy="30%" r="75%">
      <stop offset="0%" stop-color="#fff" stop-opacity=".35"/>
      <stop offset="100%" stop-color="#fff" stop-opacity="0"/>
    </radialGradient>
  </defs>

  <!-- Panels (linear order: Spring, Summer / Autumn, Winter) -->
  <g filter="url(#wash)">
    <rect x="0" y="0" width="256" height="256" fill="url(#springBg)"/>
    <rect x="256" y="0" width="256" height="256" fill="url(#summerBg)"/>
    <rect x="0" y="256" width="256" height="256" fill="url(#autumnBg)"/>
    <rect x="256" y="256" width="256" height="256" fill="url(#winterBg)"/>
  </g>

  <!-- Light atmospheric haze per panel -->
  <rect x="0" y="0" width="256" height="256" fill="url(#skyHaze)" opacity=".65"/>
  <rect x="256" y="0" width="256" height="256" fill="url(#skyHaze)" opacity=".55"/>
  <rect x="0" y="256" width="256" height="256" fill="url(#skyHaze)" opacity=".35"/>
  <rect x="256" y="256" width="256" height="256" fill="url(#skyHaze)" opacity=".25"/>

  <!-- Soft vignette -->
  <rect x="0" y="0" width="512" height="512" fill="url(#vignette)"/>

  <!-- ===================== SPRING (top-left) ===================== -->
  <g transform="translate(0,0)">
    <!-- extra leafy haze blobs -->
    <g opacity=".22">
      <circle cx="150" cy="70" r="86" fill="#A5D6A7"/>
      <circle cx="184" cy="120" r="74" fill="#C5E1A5"/>
      <circle cx="110" cy="126" r="72" fill="#8BC34A"/>
      <circle cx="86" cy="92" r="58" fill="#9CCC65"/>
    </g>

    <!-- trunk + base -->
    <path d="M72 238
             C92 206, 100 190, 108 166
             C114 148, 120 124, 118 102
             C116 76, 96 58, 74 50
             C108 60, 134 86, 136 118
             C138 152, 124 184, 114 206
             C106 222, 98 232, 90 242
             Z"
          fill="url(#trunk)" opacity=".96"/>
    <path d="M46 246 C74 232, 114 232, 154 246 C120 258, 78 260, 46 246 Z"
          fill="#558B2F" opacity=".28"/>

    <!-- branches -->
    <g fill="none" stroke="#4E342E" stroke-linecap="round" opacity=".9">
      <path d="M116 120 C148 98, 176 88, 210 84" stroke-width="6"/>
      <path d="M122 142 C156 132, 184 140, 220 156" stroke-width="5"/>
      <path d="M110 156 C96 132, 78 116, 54 106" stroke-width="4.6"/>
      <path d="M104 178 C80 178, 58 192, 42 216" stroke-width="4.1"/>
      <path d="M150 120 C160 104, 172 94, 188 84" stroke-width="4.1"/>
      <path d="M176 146 C192 136, 206 136, 224 142" stroke-width="3.6"/>
      <path d="M70 112 C56 104, 44 100, 30 98" stroke-width="3.1"/>
      <path d="M142 166 C154 170, 168 180, 182 196" stroke-width="3.4"/>
    </g>

    <!-- leaf clusters -->
    <g opacity=".92">
      <g fill="#43A047">
        <ellipse cx="164" cy="112" rx="11" ry="7"/>
        <ellipse cx="180" cy="100" rx="10" ry="7"/>
        <ellipse cx="196" cy="90" rx="11" ry="7"/>
        <ellipse cx="156" cy="138" rx="12" ry="8"/>
        <ellipse cx="184" cy="150" rx="12" ry="8"/>
        <ellipse cx="210" cy="160" rx="11" ry="7"/>
        <ellipse cx="86" cy="136" rx="11" ry="7"/>
        <ellipse cx="70" cy="124" rx="10" ry="7"/>
        <ellipse cx="92" cy="184" rx="12" ry="8"/>
        <ellipse cx="74" cy="194" rx="10" ry="7"/>
        <ellipse cx="132" cy="92" rx="10" ry="7"/>
        <ellipse cx="144" cy="104" rx="11" ry="7"/>
      </g>
      <g fill="#66BB6A" opacity=".95">
        <ellipse cx="172" cy="118" rx="12" ry="8"/>
        <ellipse cx="188" cy="108" rx="11" ry="7"/>
        <ellipse cx="200" cy="98" rx="12" ry="8"/>
        <ellipse cx="168" cy="144" rx="12" ry="8"/>
        <ellipse cx="196" cy="154" rx="12" ry="8"/>
        <ellipse cx="220" cy="166" rx="11" ry="7"/>
        <ellipse cx="78" cy="140" rx="12" ry="8"/>
        <ellipse cx="62" cy="128" rx="11" ry="7"/>
        <ellipse cx="84" cy="188" rx="12" ry="8"/>
        <ellipse cx="66" cy="198" rx="11" ry="7"/>
      </g>
    </g>

    <!-- blossoms (more detailed clusters) -->
    <g opacity=".96">
      <g fill="#F8BBD0">
        <circle cx="160" cy="110" r="6"/>
        <circle cx="172" cy="98" r="5"/>
        <circle cx="186" cy="90" r="6"/>
        <circle cx="150" cy="138" r="6"/>
        <circle cx="180" cy="150" r="5"/>
        <circle cx="202" cy="158" r="6"/>
        <circle cx="84" cy="134" r="6"/>
        <circle cx="66" cy="122" r="5"/>
        <circle cx="88" cy="182" r="6"/>
        <circle cx="74" cy="194" r="5"/>
        <circle cx="140" cy="96" r="5"/>
        <circle cx="154" cy="108" r="5"/>
      </g>
      <g fill="#F48FB1" opacity=".95">
        <circle cx="194" cy="98" r="4.2"/>
        <circle cx="134" cy="152" r="4.2"/>
        <circle cx="56" cy="150" r="4.2"/>
        <circle cx="210" cy="150" r="4.2"/>
      </g>
      <!-- floating petals -->
      <g fill="#FCE4EC" opacity=".85">
        <circle cx="214" cy="120" r="2.6"/>
        <circle cx="226" cy="130" r="2.2"/>
        <circle cx="206" cy="132" r="2.4"/>
        <circle cx="46" cy="156" r="2.4"/>
        <circle cx="58" cy="168" r="2.2"/>
        <circle cx="36" cy="170" r="2.3"/>
      </g>
    </g>
  </g>

  <!-- ===================== SUMMER (top-right) ===================== -->
  <g transform="translate(256,0)">
    <!-- extra warm glow -->
    <circle cx="180" cy="70" r="140" fill="#FFF8E1" opacity=".22"/>

    <!-- sun -->
    <g transform="translate(150,88)" opacity=".92">
      <!-- longer rays -->
      <g fill="#F9A825">
        <path d="M0,-92 C10,-74 10,-60 0,-46 C-10,-60 -10,-74 0,-92Z"/>
        <path d="M64,-64 C60,-46 52,-36 38,-28 C42,-48 52,-58 64,-64Z"/>
        <path d="M92,0 C74,10 60,10 46,0 C60,-10 74,-10 92,0Z"/>
        <path d="M64,64 C46,60 36,52 28,38 C48,42 58,52 64,64Z"/>
        <path d="M0,92 C-10,74 -10,60 0,46 C10,60 10,74 0,92Z"/>
        <path d="M-64,64 C-60,46 -52,36 -38,28 C-42,48 -52,58 -64,64Z"/>
        <path d="M-92,0 C-74,-10 -60,-10 -46,0 C-60,10 -74,10 -92,0Z"/>
        <path d="M-64,-64 C-46,-60 -36,-52 -28,-38 C-48,-42 -58,-52 -64,-64Z"/>
      </g>

      <!-- small rays between -->
      <g fill="#FBC02D" opacity=".75">
        <path d="M32,-84 C36,-70 34,-58 26,-48 C22,-62 24,-74 32,-84Z"/>
        <path d="M84,-32 C70,-36 58,-34 48,-26 C62,-22 74,-24 84,-32Z"/>
        <path d="M32,84 C36,70 34,58 26,48 C22,62 24,74 32,84Z"/>
        <path d="M-84,32 C-70,36 -58,34 -48,26 C-62,22 -74,24 -84,32Z"/>
      </g>

      <circle cx="0" cy="0" r="60" fill="url(#sunCore)" filter="url(#softShadow)"/>
      <circle cx="0" cy="0" r="48" fill="#FDD835" opacity=".28"/>
      <circle cx="-16" cy="-18" r="12" fill="#FFFDE7" opacity=".22"/>
    </g>

    <!-- clouds (more layered) -->
    <g opacity=".5">
      <path d="M34 178 C50 156, 84 156, 96 172
               C112 154, 142 154, 154 174
               C176 170, 196 184, 192 206
               C188 228, 162 236, 136 230
               C126 248, 88 250, 76 230
               C52 236, 26 226, 26 206
               C26 192, 30 184, 34 178 Z"
            fill="#FFF8E1"/>
      <path d="M140 154 C152 136, 182 134, 196 150
               C210 134, 238 134, 248 152
               C266 152, 280 166, 276 184
               C272 202, 250 210, 228 204
               C220 216, 194 216, 186 204
               C168 210, 148 202, 148 184
               C148 170, 150 160, 140 154 Z"
            fill="#FFF8E1"/>
      <!-- wispy highlight -->
      <path d="M54 206 C80 214, 114 214, 150 206" stroke="#FFFFFF" stroke-width="3" opacity=".35" fill="none" stroke-linecap="round"/>
    </g>
  </g>

  <!-- ===================== AUTUMN (bottom-left) ===================== -->
  <g transform="translate(0,256)">
    <!-- warm canopy haze blobs -->
    <g opacity=".34">
      <circle cx="110" cy="108" r="82" fill="#FFCC80"/>
      <circle cx="152" cy="118" r="76" fill="#FF9800"/>
      <circle cx="88" cy="142" r="72" fill="#FFA726"/>
      <circle cx="180" cy="148" r="64" fill="#FB8C00"/>
    </g>

    <!-- trunk -->
    <path d="M118 246
             C112 216, 110 196, 112 172
             C114 144, 126 124, 136 108
             C146 124, 154 146, 154 174
             C154 198, 148 220, 142 246
             Z"
          fill="url(#trunk)" opacity=".96"/>
    <path d="M70 252 C104 236, 152 236, 200 252 C160 266, 112 268, 70 252 Z"
          fill="#5D4037" opacity=".15"/>

    <!-- branches -->
    <g fill="none" stroke="#4E342E" stroke-linecap="round" opacity=".88">
      <path d="M136 120 C114 104, 90 94, 62 86" stroke-width="5.6"/>
      <path d="M140 132 C164 114, 192 102, 224 96" stroke-width="5.2"/>
      <path d="M134 150 C110 146, 88 154, 62 176" stroke-width="4.7"/>
      <path d="M144 154 C170 156, 194 172, 224 198" stroke-width="4.5"/>
      <path d="M122 132 C106 120, 94 114, 80 110" stroke-width="3.6" opacity=".7"/>
      <path d="M162 134 C176 122, 190 116, 206 112" stroke-width="3.6" opacity=".7"/>
    </g>

    <!-- leaves (more variety) -->
    <g opacity=".97">
      <g>
        <ellipse cx="86" cy="118" rx="12" ry="8" fill="#FFE0B2"/>
        <ellipse cx="104" cy="108" rx="13" ry="9" fill="#FFA726"/>
        <ellipse cx="126" cy="102" rx="13" ry="9" fill="#FF9800"/>
        <ellipse cx="154" cy="110" rx="13" ry="9" fill="#FB8C00"/>
        <ellipse cx="178" cy="120" rx="13" ry="9" fill="#FFA726"/>
        <ellipse cx="200" cy="128" rx="12" ry="8" fill="#FFE0B2"/>
        <ellipse cx="82" cy="150" rx="13" ry="9" fill="#FF9800"/>
        <ellipse cx="112" cy="146" rx="13" ry="9" fill="#FB8C00"/>
        <ellipse cx="142" cy="146" rx="13" ry="9" fill="#FFA726"/>
        <ellipse cx="170" cy="152" rx="13" ry="9" fill="#FF9800"/>
        <ellipse cx="198" cy="158" rx="12" ry="8" fill="#FFE0B2"/>
        <ellipse cx="102" cy="176" rx="13" ry="9" fill="#FFA726"/>
        <ellipse cx="132" cy="176" rx="13" ry="9" fill="#FF9800"/>
        <ellipse cx="160" cy="178" rx="13" ry="9" fill="#FB8C00"/>
        <ellipse cx="188" cy="184" rx="12" ry="8" fill="#FFE0B2"/>
        <!-- a few red accents -->
        <ellipse cx="146" cy="126" rx="11" ry="7" fill="#FF7043" opacity=".75"/>
        <ellipse cx="118" cy="124" rx="11" ry="7" fill="#FF8A65" opacity=".7"/>
        <ellipse cx="176" cy="168" rx="11" ry="7" fill="#FF7043" opacity=".7"/>
      </g>
    </g>

    <!-- drifting leaves (more + stems) -->
    <g opacity=".6">
      <path d="M218 56 C230 70, 230 88, 218 98 C206 88, 206 70, 218 56 Z" fill="#FFE0B2"/>
      <path d="M218 56 L226 64" stroke="#6D4C41" stroke-width="1.2" opacity=".6" stroke-linecap="round"/>
      <path d="M36 62 C48 76, 48 94, 36 104 C24 94, 24 76, 36 62 Z" fill="#FFA726"/>
      <path d="M36 62 L44 70" stroke="#6D4C41" stroke-width="1.2" opacity=".6" stroke-linecap="round"/>
      <path d="M226 204 C238 218, 238 236, 226 246 C214 236, 214 218, 226 204 Z" fill="#FB8C00"/>
      <path d="M226 204 L234 212" stroke="#6D4C41" stroke-width="1.2" opacity=".6" stroke-linecap="round"/>
      <path d="M66 208 C76 220, 76 234, 66 242 C56 234, 56 220, 66 208 Z" fill="#FF7043" opacity=".75"/>
    </g>
  </g>

  <!-- ===================== WINTER (bottom-right) ===================== -->
  <g transform="translate(256,256)">
    <!-- faint cold glow -->
    <circle cx="110" cy="80" r="150" fill="#E3F2FD" opacity=".18"/>

    <!-- snow specks (more, varied sizes) -->
    <g opacity=".75" fill="#E3F2FD">
      <circle cx="36" cy="40" r="2.2"/>
      <circle cx="70" cy="56" r="2.6"/>
      <circle cx="110" cy="44" r="2.0"/>
      <circle cx="150" cy="62" r="2.9"/>
      <circle cx="190" cy="40" r="2.2"/>
      <circle cx="224" cy="70" r="2.6"/>
      <circle cx="54" cy="98" r="2.9"/>
      <circle cx="92" cy="92" r="2.2"/>
      <circle cx="132" cy="96" r="2.6"/>
      <circle cx="172" cy="102" r="2.4"/>
      <circle cx="212" cy="108" r="2.9"/>
      <circle cx="48" cy="140" r="2.6"/>
      <circle cx="86" cy="150" r="2.9"/>
      <circle cx="120" cy="138" r="2.2"/>
      <circle cx="160" cy="152" r="2.6"/>
      <circle cx="206" cy="148" r="2.9"/>
      <circle cx="60" cy="196" r="2.4"/>
      <circle cx="98" cy="206" r="2.9"/>
      <circle cx="142" cy="198" r="2.6"/>
      <circle cx="188" cy="212" r="2.9"/>
      <circle cx="232" cy="196" r="2.4"/>
      <!-- extras -->
      <circle cx="28" cy="78" r="2.2"/>
      <circle cx="246" cy="120" r="2.6"/>
      <circle cx="34" cy="170" r="2.4"/>
      <circle cx="218" cy="168" r="2.4"/>
      <circle cx="176" cy="68" r="2.2"/>
    </g>

    <!-- snowy ground -->
    <path d="M10 246 C54 222, 112 222, 246 246 C206 262, 72 268, 10 246 Z"
          fill="#E3F2FD" opacity=".28"/>

    <!-- trunk -->
    <path d="M126 246
             C120 214, 118 192, 120 166
             C122 134, 136 110, 148 88
             C160 110, 168 136, 168 166
             C168 192, 162 214, 156 246
             Z"
          fill="url(#trunk)" opacity=".92"/>

    <!-- bare branches (more twigs) -->
    <g fill="none" stroke="#3E2723" stroke-linecap="round" opacity=".88">
      <path d="M148 96 C122 80, 96 66, 64 58" stroke-width="5.2"/>
      <path d="M152 104 C176 88, 202 74, 238 66" stroke-width="5.2"/>
      <path d="M146 126 C120 126, 94 142, 66 170" stroke-width="4.7"/>
      <path d="M162 128 C188 130, 212 148, 242 176" stroke-width="4.7"/>

      <path d="M116 78 C104 72, 92 70, 80 68" stroke-width="3.4" opacity=".75"/>
      <path d="M186 80 C198 74, 210 72, 224 70" stroke-width="3.4" opacity=".75"/>
      <path d="M92 150 C84 158, 78 166, 70 178" stroke-width="3.2" opacity=".75"/>
      <path d="M216 152 C224 160, 232 170, 240 180" stroke-width="3.2" opacity=".75"/>

      <!-- tiny twig forks -->
      <path d="M94 70 C88 64, 84 62, 78 60" stroke-width="2.4" opacity=".6"/>
      <path d="M214 72 C220 66, 226 64, 232 62" stroke-width="2.4" opacity=".6"/>
      <path d="M74 174 C70 182, 66 188, 62 194" stroke-width="2.4" opacity=".6"/>
      <path d="M244 178 C248 186, 252 192, 256 198" stroke-width="2.4" opacity=".6"/>
    </g>
  </g>

  <!-- ===================== CENTER CIRCLE + BOOK (cream, not white) ===================== -->
  <g filter="url(#softShadow)">
    <circle cx="256" cy="256" r="86" fill="#FFFFFF" opacity=".22"/>
    <circle cx="256" cy="256" r="80" fill="url(#band)" opacity="0.97"/>
    <circle cx="256" cy="256" r="80" fill="#fff" opacity=".06"/>

    <path d="M236 236 L236 276 L256 270 L276 276 L276 236 Z"
          fill="#2c3e50" stroke="#2c3e50" stroke-width="2"/>
    <line x1="236" y1="246" x2="276" y2="246" stroke="#8194a8" stroke-width="1"/>
    <line x1="236" y1="256" x2="276" y2="256" stroke="#8194a8" stroke-width="1"/>
    <line x1="236" y1="266" x2="270" y2="266" stroke="#8194a8" stroke-width="1"/>
  </g>

  <!-- overall paper texture on top -->
  <g filter="url(#paper)">
    <rect x="0" y="0" width="512" height="512" fill="transparent"/>
  </g>
</svg>
